<svg width="139" height="139" viewBox="0 0 139 139" fill="none" xmlns="http://www.w3.org/2000/svg">
    <g opacity="0.64">
    <path d="M134.943 79.1818L135.084 77.5982C135.427 77.5674 135.735 77.4806 136.007 77.3376C136.279 77.1947 136.515 77.0111 136.716 76.7868C136.917 76.5625 137.076 76.3056 137.194 76.0159C137.311 75.7297 137.385 75.4208 137.414 75.0892C137.468 74.4903 137.365 73.9406 137.106 73.4401C136.846 72.943 136.438 72.5316 135.88 72.2057C135.322 71.8833 134.624 71.6848 133.785 71.6101C132.939 71.5349 132.213 71.6068 131.607 71.8257C131.001 72.048 130.527 72.3828 130.188 72.83C129.848 73.2772 129.651 73.7969 129.599 74.389C129.57 74.7172 129.586 75.0324 129.648 75.3346C129.712 75.6405 129.822 75.9214 129.977 76.1772C130.131 76.4331 130.328 76.6553 130.567 76.8436C130.809 77.0357 131.093 77.1786 131.419 77.2724L131.273 78.8554C130.77 78.7254 130.314 78.5195 129.906 78.2376C129.501 77.9595 129.16 77.6171 128.882 77.2104C128.608 76.8075 128.407 76.3566 128.281 75.8577C128.155 75.3588 128.117 74.8234 128.168 74.2516C128.248 73.3515 128.533 72.5686 129.022 71.9027C129.514 71.2371 130.178 70.7369 131.012 70.4018C131.847 70.0702 132.817 69.9536 133.923 70.052C135.033 70.1507 135.968 70.4384 136.727 70.9152C137.489 71.3922 138.052 72.0016 138.416 72.7433C138.783 73.4853 138.927 74.3046 138.847 75.2012C138.798 75.7528 138.673 76.26 138.471 76.7229C138.273 77.1896 138.004 77.6005 137.666 77.9558C137.331 78.3113 136.934 78.5949 136.475 78.8065C136.02 79.0183 135.509 79.1434 134.943 79.1818Z" fill="white"/>
    <path d="M127.603 80.596L137.675 83.3255L136.676 87.014C136.482 87.7288 136.204 88.2886 135.84 88.6935C135.481 89.0992 135.069 89.3643 134.606 89.4887C134.146 89.614 133.667 89.6091 133.169 89.474C132.749 89.3603 132.416 89.1873 132.169 88.955C131.926 88.7236 131.752 88.4549 131.649 88.1488C131.547 87.8468 131.499 87.5311 131.504 87.2016L131.406 87.1749C131.299 87.5049 131.102 87.8018 130.816 88.0657C130.532 88.3337 130.18 88.5233 129.759 88.6345C129.338 88.7457 128.867 88.7306 128.346 88.5894C127.831 88.4499 127.402 88.2033 127.058 87.8496C126.716 87.5001 126.493 87.0421 126.39 86.4756C126.29 85.91 126.345 85.237 126.557 84.4567L127.603 80.596ZM128.495 82.4689L127.9 84.6623C127.703 85.3902 127.703 85.9497 127.899 86.3409C128.096 86.732 128.406 86.9849 128.829 87.0995C129.147 87.1857 129.46 87.1845 129.769 87.0958C130.079 87.0071 130.352 86.8349 130.59 86.5792C130.828 86.3268 131.002 85.9973 131.112 85.5907L131.721 83.3432L128.495 82.4689ZM132.906 83.6644L132.354 85.7004C132.262 86.0414 132.244 86.3657 132.302 86.6734C132.358 86.9844 132.483 87.2521 132.675 87.4768C132.87 87.7056 133.13 87.8639 133.455 87.9519C133.871 88.0647 134.26 88.0135 134.621 87.7981C134.982 87.5827 135.244 87.1733 135.408 86.5701L135.97 84.4947L132.906 83.6644Z" fill="white"/>
    <path d="M121.687 97.0735L122.356 95.6426L130.586 99.4911L131.423 97.7002C131.642 97.2324 131.749 96.8193 131.744 96.4608C131.742 96.1037 131.642 95.7963 131.444 95.5386C131.246 95.2809 130.968 95.0686 130.611 94.9017C130.257 94.7362 129.922 94.6622 129.607 94.6796C129.291 94.697 129 94.8194 128.732 95.0468C128.464 95.2741 128.222 95.6201 128.005 96.0848L126.872 98.508L125.644 97.9339L126.84 95.3768C127.181 94.6475 127.586 94.0966 128.057 93.7241C128.526 93.3547 129.036 93.1506 129.586 93.1118C130.138 93.0776 130.704 93.1957 131.282 93.4662C131.864 93.7382 132.32 94.0978 132.651 94.545C132.985 94.9937 133.165 95.5185 133.192 96.1196C133.217 96.7238 133.059 97.3905 132.717 98.1198L131.14 101.494L121.687 97.0735ZM128.134 94.4014L127.396 95.98L124.203 91.6916L124.961 90.0715L128.134 94.4014Z" fill="white"/>
    <path d="M118.269 102.313C118.666 101.737 119.12 101.29 119.631 100.974C120.14 100.661 120.661 100.494 121.194 100.474C121.729 100.458 122.237 100.602 122.717 100.904L121.809 102.222C121.543 102.063 121.264 101.996 120.97 102.021C120.678 102.05 120.394 102.156 120.12 102.338C119.846 102.521 119.603 102.766 119.391 103.074C119.158 103.412 119.01 103.752 118.948 104.093C118.885 104.437 118.907 104.755 119.014 105.048C119.125 105.343 119.318 105.585 119.595 105.776C119.883 105.975 120.188 106.075 120.508 106.077C120.829 106.084 121.15 105.989 121.471 105.794C121.789 105.601 122.085 105.306 122.359 104.908L122.859 104.182L123.917 104.911L123.416 105.637C123.197 105.956 123.061 106.275 123.01 106.595C122.957 106.917 122.986 107.217 123.095 107.495C123.208 107.774 123.403 108.01 123.68 108.201C123.945 108.384 124.218 108.482 124.496 108.497C124.776 108.516 125.047 108.456 125.309 108.314C125.569 108.176 125.801 107.96 126.003 107.666C126.196 107.387 126.324 107.09 126.388 106.775C126.453 106.465 126.443 106.169 126.357 105.887C126.273 105.607 126.104 105.37 125.849 105.178L126.713 103.923C127.168 104.257 127.482 104.676 127.655 105.179C127.826 105.685 127.863 106.221 127.765 106.789C127.667 107.356 127.436 107.903 127.074 108.429C126.694 108.98 126.259 109.382 125.768 109.633C125.278 109.889 124.78 110.004 124.274 109.978C123.767 109.954 123.303 109.795 122.882 109.501C122.399 109.173 122.083 108.757 121.935 108.254C121.784 107.755 121.806 107.241 121.999 106.715L121.932 106.669C121.452 107.179 120.921 107.465 120.339 107.526C119.755 107.59 119.192 107.433 118.651 107.056C118.177 106.734 117.844 106.31 117.652 105.786C117.458 105.265 117.411 104.702 117.509 104.098C117.611 103.495 117.864 102.9 118.269 102.313Z" fill="white"/>
    <path d="M114.265 107.955L115.434 106.761L120.267 116.743L118.994 118.043L108.909 113.429L110.078 112.235L118.245 116.099L118.302 116.04L114.265 107.955ZM116.99 111.014L113.198 114.889L112.252 113.962L116.043 110.087L116.99 111.014Z" fill="white"/>
    <path d="M112.876 122.044L113.661 123.148L107.078 127.827L106.293 126.723L108.947 124.836L103.687 117.435L104.966 116.526L110.226 123.927L112.876 122.044Z" fill="white"/>
    <path d="M100.55 126.803L98.0158 128.023C97.3179 128.358 96.6696 128.531 96.0708 128.54C95.4721 128.549 94.9447 128.409 94.4887 128.12C94.0297 127.832 93.6669 127.407 93.4004 126.845C93.1277 126.287 93.0184 125.73 93.0723 125.177C93.1232 124.624 93.3353 124.11 93.7087 123.632C94.082 123.154 94.6177 122.748 95.3155 122.412L98.8371 120.717L103.363 130.12L101.939 130.805L97.9883 122.596L95.8901 123.606C95.483 123.802 95.1784 124.046 94.9765 124.339C94.7715 124.634 94.6582 124.943 94.6366 125.266C94.612 125.591 94.6696 125.899 94.8096 126.19C95.0129 126.612 95.3496 126.897 95.8199 127.044C96.2917 127.194 96.8321 127.122 97.4413 126.829L99.9757 125.609L100.55 126.803Z" fill="white"/>
    <path d="M83.1846 134.091L84.7174 133.669C84.8665 133.98 85.0555 134.238 85.2844 134.443C85.5134 134.648 85.768 134.805 86.0483 134.915C86.3286 135.024 86.625 135.084 86.9376 135.093C87.2469 135.103 87.562 135.064 87.883 134.976C88.4627 134.816 88.9417 134.528 89.3201 134.11C89.6952 133.693 89.9379 133.167 90.0482 132.53C90.1553 131.895 90.0971 131.171 89.8737 130.359C89.6484 129.54 89.3273 128.885 88.9104 128.394C88.4901 127.903 88.0111 127.577 87.4732 127.415C86.9354 127.253 86.3799 127.251 85.8067 127.408C85.489 127.496 85.1994 127.621 84.9379 127.785C84.674 127.952 84.4492 128.153 84.2635 128.388C84.0778 128.622 83.9385 128.884 83.8456 129.174C83.7503 129.468 83.7157 129.784 83.7417 130.122L82.2075 130.539C82.1534 130.022 82.187 129.523 82.3084 129.042C82.4274 128.565 82.6289 128.126 82.9129 127.723C83.1944 127.325 83.5469 126.98 83.9702 126.687C84.3935 126.395 84.882 126.172 85.4355 126.02C86.3067 125.781 87.1397 125.773 87.9345 125.999C88.7302 126.227 89.4308 126.674 90.0365 127.339C90.6388 128.005 91.0873 128.873 91.3819 129.944C91.6775 131.018 91.7345 131.994 91.5532 132.872C91.3728 133.753 90.9987 134.494 90.431 135.094C89.8642 135.697 89.1468 136.118 88.2788 136.357C87.7449 136.504 87.2259 136.564 86.7218 136.537C86.2152 136.514 85.7364 136.406 85.2852 136.213C84.8349 136.024 84.4304 135.751 84.0719 135.395C83.7142 135.042 83.4184 134.608 83.1846 134.091Z" fill="white"/>
    <path d="M71.8699 128.382L73.4428 128.236L74.2824 137.283L76.2509 137.1C76.7651 137.052 77.1756 136.936 77.4825 136.75C77.7896 136.568 78.0043 136.326 78.1265 136.025C78.2486 135.724 78.2915 135.377 78.2551 134.985C78.2189 134.596 78.1136 134.269 77.939 134.006C77.7645 133.742 77.5115 133.553 77.18 133.437C76.8486 133.321 76.4275 133.286 75.9167 133.334L73.2531 133.581L73.1278 132.232L75.9386 131.971C76.7402 131.896 77.4207 131.968 77.9799 132.185C78.5357 132.403 78.9695 132.74 79.2813 133.196C79.59 133.655 79.7739 134.202 79.8329 134.838C79.8923 135.477 79.8126 136.053 79.594 136.564C79.3757 137.079 79.0139 137.5 78.5086 137.827C77.9999 138.154 77.3448 138.354 76.5432 138.429L72.8344 138.773L71.8699 128.382ZM77.4345 132.594L75.6993 132.755L77.7858 127.833L79.5666 127.668L77.4345 132.594Z" fill="white"/>
    <path d="M54.4102 133.794L55.9783 134.056C55.9826 134.401 56.0456 134.715 56.1672 134.997C56.2889 135.279 56.4538 135.529 56.662 135.746C56.8703 135.963 57.1142 136.142 57.394 136.281C57.6704 136.421 57.9727 136.518 58.3011 136.572C58.8941 136.672 59.4501 136.611 59.969 136.391C60.4845 136.171 60.9261 135.795 61.2937 135.264C61.6581 134.733 61.9096 134.052 62.0484 133.221C62.1883 132.383 62.1724 131.654 62.0006 131.033C61.8255 130.411 61.528 129.914 61.1082 129.54C60.6884 129.167 60.1853 128.932 59.599 128.834C59.274 128.779 58.9584 128.771 58.6524 128.81C58.3424 128.851 58.054 128.939 57.787 129.073C57.52 129.208 57.2834 129.387 57.0773 129.611C56.8672 129.838 56.7029 130.11 56.5844 130.427L55.0172 130.161C55.1855 129.669 55.4258 129.23 55.7381 128.845C56.0465 128.462 56.4141 128.148 56.8408 127.903C57.2637 127.66 57.7286 127.495 58.2357 127.407C58.7429 127.32 59.2795 127.323 59.8458 127.418C60.737 127.567 61.4958 127.911 62.1222 128.449C62.748 128.991 63.1959 129.691 63.4659 130.549C63.7325 131.406 63.7743 132.383 63.5913 133.478C63.4077 134.577 63.0492 135.487 62.5156 136.207C61.9814 136.931 61.3306 137.445 60.5632 137.751C59.7952 138.06 58.9673 138.141 58.0794 137.992C57.5333 137.901 57.0371 137.737 56.591 137.501C56.141 137.267 55.7519 136.968 55.4236 136.603C55.0948 136.242 54.8426 135.824 54.6668 135.351C54.4905 134.88 54.405 134.362 54.4102 133.794Z" fill="white"/>
    <path d="M49.0306 124.931L44.6102 134.384L43.184 133.717L45.1049 129.609L40.3923 127.405L38.4714 131.513L37.0405 130.844L41.4609 121.391L42.8917 122.06L40.9643 126.182L45.6769 128.386L47.6044 124.264L49.0306 124.931Z" fill="white"/>
    <path d="M38.0829 119.453L39.438 120.431L30.2853 126.695L28.8104 125.63L31.8733 114.971L33.2284 115.949L30.6222 124.6L30.6883 124.648L38.0829 119.453ZM35.4638 122.603L31.0679 119.43L31.8433 118.355L36.2392 121.528L35.4638 122.603Z" fill="white"/>
    <path d="M22.4923 120.816L21.1962 119.412L24.9034 111.468L24.8205 111.378L16.6065 114.439L15.3104 113.035L22.9783 105.957L23.9944 107.058L18.4457 112.18L18.5114 112.251L26.1364 109.401L26.9797 110.315L23.5259 117.691L23.5916 117.762L29.1441 112.637L30.1602 113.738L22.4923 120.816Z" fill="white"/>
    <path d="M12.4538 109.284L11.6509 107.948L18.2203 104.001L18.1704 103.918L8.86703 103.313L8.11661 102.064L17.0621 96.6903L17.8728 98.04L11.3123 101.981L11.3621 102.064L20.6515 102.666L21.3993 103.91L12.4538 109.284Z" fill="white"/>
    <path d="M5.54059 78.181L13.7818 83.213L8.71962 91.5034L0.459446 86.392L5.54059 78.181Z" fill="white"/>
    <path d="M3.82291 60.997L3.71872 62.5834C3.37575 62.6221 3.07 62.7161 2.80148 62.8652C2.53296 63.0144 2.30097 63.2034 2.10551 63.4323C1.91005 63.6612 1.75677 63.9217 1.64566 64.214C1.53477 64.5029 1.46842 64.8134 1.4466 65.1456C1.40719 65.7456 1.52274 66.2927 1.79325 66.7871C2.06398 67.2781 2.48184 67.68 3.04682 67.9928C3.61203 68.3023 4.31495 68.4846 5.15558 68.5399C6.00298 68.5955 6.7271 68.5069 7.32793 68.274C7.92898 68.0378 8.39423 67.6922 8.72369 67.2372C9.05314 66.7822 9.23735 66.2582 9.27631 65.665C9.29791 65.3362 9.27433 65.0214 9.20556 64.7208C9.13364 64.4165 9.01745 64.1382 8.85699 63.886C8.69654 63.6337 8.49465 63.4162 8.25134 63.2334C8.00486 63.047 7.71764 62.9107 7.38969 62.8245L7.49897 61.2385C8.00523 61.3568 8.4656 61.5522 8.88005 61.8245C9.29134 62.0932 9.64043 62.4276 9.92735 62.8277C10.2111 63.2243 10.4218 63.6704 10.5594 64.1663C10.6971 64.6621 10.7471 65.1965 10.7095 65.7693C10.6502 66.671 10.3839 67.4603 9.91053 68.1373C9.43374 68.814 8.78201 69.3295 7.95534 69.6838C7.12889 70.0346 6.16146 70.1736 5.05305 70.1008C3.94125 70.0278 3.00043 69.7617 2.23058 69.3026C1.45735 68.8433 0.880334 68.2471 0.499548 67.5141C0.115372 66.7807 -0.0472165 65.965 0.0117812 65.0667C0.0480703 64.5142 0.161567 64.0042 0.352271 63.5367C0.539808 63.0656 0.798688 62.6486 1.12891 62.2856C1.45575 61.9224 1.84603 61.6297 2.29977 61.4076C2.75012 61.1853 3.25783 61.0484 3.82291 60.997Z" fill="white"/>
    <path d="M11.1175 59.4309L0.985803 56.9316L1.90106 53.2213C2.07842 52.5023 2.344 51.9363 2.6978 51.5232C3.0483 51.1094 3.45362 50.835 3.91375 50.7001C4.37058 50.5644 4.84964 50.5583 5.35095 50.682C5.7731 50.7861 6.11018 50.9515 6.36217 51.1781C6.61086 51.4039 6.79048 51.6686 6.901 51.9723C7.00904 52.2718 7.0644 52.5864 7.06708 52.9159L7.16602 52.9403C7.2655 52.608 7.45529 52.3067 7.73538 52.0364C8.013 51.762 8.36088 51.5644 8.77903 51.4436C9.19719 51.3229 9.66846 51.3272 10.1929 51.4565C10.7107 51.5843 11.1456 51.821 11.4976 52.1667C11.8472 52.5084 12.0801 52.9612 12.1964 53.5252C12.3094 54.0884 12.2691 54.7624 12.0755 55.5474L11.1175 59.4309ZM10.1836 57.5788L10.7279 55.3724C10.9085 54.6402 10.896 54.0809 10.6905 53.6943C10.4849 53.3077 10.1695 53.0619 9.744 52.957C9.42409 52.8781 9.11063 52.8865 8.80362 52.9822C8.49661 53.0779 8.22694 53.2563 7.9946 53.5173C7.76307 53.7751 7.59686 54.1085 7.49598 54.5174L6.93828 56.7783L10.1836 57.5788ZM5.74603 56.4842L6.25125 54.4361C6.33586 54.0931 6.34597 53.7684 6.28157 53.4621C6.21799 53.1526 6.0874 52.8877 5.8898 52.6675C5.68972 52.4432 5.42643 52.2908 5.09992 52.2102C4.68106 52.1069 4.29361 52.167 3.93757 52.3906C3.58153 52.6142 3.32866 53.0294 3.17897 53.6362L2.66398 55.7239L5.74603 56.4842Z" fill="white"/>
    <path d="M16.6378 42.8389L16.0009 44.2844L7.68721 40.6208L6.88997 42.4299C6.68175 42.9024 6.58407 43.3178 6.59693 43.6761C6.60668 44.0331 6.71353 44.3381 6.91748 44.5914C7.12143 44.8446 7.40369 45.0506 7.76428 45.2095C8.12176 45.367 8.45808 45.4336 8.77325 45.4091C9.08842 45.3847 9.37722 45.2558 9.63965 45.0225C9.90208 44.7892 10.1367 44.4379 10.3436 43.9685L11.4223 41.5206L12.6626 42.0671L11.5243 44.6503C11.1996 45.387 10.8063 45.9468 10.3443 46.3297C9.88364 46.7096 9.37852 46.925 8.82889 46.9761C8.27753 47.0226 7.70965 46.9172 7.12526 46.6596C6.53775 46.4007 6.07361 46.0514 5.73283 45.6117C5.38895 45.1706 5.19709 44.6499 5.15725 44.0495C5.11879 43.4461 5.26188 42.776 5.58653 42.0393L7.08855 38.6308L16.6378 42.8389ZM10.2521 45.6544L10.9548 44.0597L14.242 48.2757L13.5208 49.9123L10.2521 45.6544Z" fill="white"/>
    <path d="M19.8707 37.5924C19.4864 38.1773 19.0424 38.6334 18.5386 38.9609C18.0367 39.2855 17.5193 39.4637 16.9862 39.4955C16.4522 39.5227 15.9416 39.3904 15.4544 39.0987L16.333 37.7616C16.6026 37.9143 16.8837 37.9751 17.1765 37.9439C17.4684 37.9081 17.7493 37.796 18.0194 37.6076C18.2895 37.4193 18.5271 37.169 18.7323 36.8567C18.958 36.5132 19.098 36.1702 19.1523 35.8279C19.2084 35.4827 19.1794 35.1649 19.0653 34.8745C18.9484 34.5823 18.7495 34.3438 18.4684 34.1591C18.176 33.967 17.8697 33.8734 17.5494 33.8784C17.2281 33.8786 16.9094 33.9802 16.5932 34.183C16.2789 34.3829 15.9893 34.6844 15.7244 35.0876L15.2404 35.8243L14.1673 35.1192L14.6513 34.3825C14.864 34.0588 14.9923 33.7367 15.0364 33.4161C15.0822 33.0926 15.0473 32.7932 14.9314 32.5179C14.8128 32.2408 14.6129 32.0099 14.3318 31.8252C14.0621 31.648 13.7878 31.5551 13.5089 31.5466C13.229 31.5334 12.9595 31.6002 12.7004 31.7471C12.4432 31.891 12.2167 32.1121 12.0208 32.4102C11.8343 32.6941 11.7124 32.994 11.6552 33.31C11.5969 33.6213 11.614 33.917 11.7063 34.1972C11.7958 34.4755 11.9702 34.708 12.2296 34.8947L11.393 36.1679C10.9311 35.8441 10.608 35.4326 10.4238 34.9336C10.2414 34.4317 10.1931 33.8959 10.2788 33.3263C10.3645 32.7566 10.5827 32.2049 10.9334 31.6712C11.3009 31.112 11.7273 30.7012 12.2126 30.4388C12.697 30.1718 13.1922 30.046 13.6982 30.0615C14.2062 30.0741 14.6735 30.2227 15.1003 30.5072C15.5905 30.8252 15.9154 31.2338 16.0752 31.733C16.2368 32.2294 16.2265 32.743 16.0445 33.2737L16.1126 33.3184C16.5811 32.7971 17.1058 32.4997 17.6866 32.4261C18.2693 32.3496 18.8351 32.4938 19.384 32.8585C19.8656 33.1709 20.2081 33.5869 20.4113 34.1066C20.6163 34.6234 20.6762 35.185 20.5907 35.7914C20.5024 36.3959 20.2624 36.9963 19.8707 37.5924Z" fill="white"/>
    <path d="M23.7083 31.8528L22.5658 33.0726L17.5167 23.198L18.7603 21.8704L28.9437 26.2633L27.8012 27.4831L19.5515 23.7984L19.4958 23.8579L23.7083 31.8528ZM20.9174 28.8547L24.6236 24.8978L25.5905 25.8034L21.8843 29.7603L20.9174 28.8547Z" fill="white"/>
    <path d="M24.5953 17.8535L23.7821 16.7692L30.2431 11.9235L31.0563 13.0078L28.4516 14.9613L33.8995 22.2254L32.644 23.167L27.196 15.903L24.5953 17.8535Z" fill="white"/>
    <path d="M36.8773 12.6855L39.3839 11.4096C40.0742 11.0583 40.7185 10.8714 41.3169 10.8489C41.9153 10.8264 42.4457 10.9547 42.908 11.234C43.3733 11.5117 43.7455 11.9283 44.0244 12.4839C44.3094 13.0363 44.4311 13.59 44.3895 14.1448C44.351 14.6981 44.1504 15.2175 43.7877 15.7032C43.4251 16.1889 42.8986 16.6075 42.2084 16.9588L38.7254 18.7316L33.9918 9.43155L35.3995 8.71504L39.5322 16.8344L41.6074 15.7781C42.0101 15.5732 42.3091 15.3219 42.5045 15.0242C42.7028 14.7251 42.8092 14.4136 42.8236 14.0899C42.841 13.7647 42.7766 13.4583 42.6302 13.1707C42.4175 12.7529 42.0745 12.4758 41.601 12.3395C41.1261 12.2001 40.5873 12.2837 39.9849 12.5903L37.4783 13.8662L36.8773 12.6855Z" fill="white"/>
    <path d="M54.2386 4.90288L52.7157 5.35923C52.5596 5.05139 52.3648 4.7977 52.1313 4.59818C51.8977 4.39866 51.6396 4.24729 51.3569 4.14406C51.0741 4.04083 50.7764 3.98819 50.4638 3.98615C50.1543 3.98312 49.8402 4.02939 49.5213 4.12496C48.9454 4.29755 48.473 4.59691 48.1042 5.02303C47.7387 5.44817 47.508 5.98008 47.4122 6.61874C47.3196 7.25643 47.3942 7.97877 47.636 8.78576C47.8798 9.59925 48.2157 10.2468 48.6437 10.7285C49.075 11.2092 49.5613 11.5245 50.1027 11.6743C50.6441 11.8241 51.1995 11.8137 51.7689 11.6431C52.0846 11.5485 52.3713 11.4165 52.629 11.2471C52.889 11.0734 53.1092 10.8673 53.2895 10.6289C53.4698 10.3905 53.6032 10.1253 53.6895 9.8335C53.7781 9.53744 53.8055 9.2207 53.7718 8.88328L55.2961 8.43181C55.362 8.94754 55.3397 9.44713 55.2292 9.9306C55.1211 10.4098 54.9296 10.8537 54.6549 11.2623C54.3824 11.6667 54.0379 12.0199 53.6214 12.322C53.2048 12.6242 52.7216 12.8577 52.1716 13.0224C51.3061 13.2818 50.4735 13.3079 49.6738 13.1008C48.8731 12.8903 48.1625 12.4596 47.5419 11.8087C46.9245 11.1568 46.4564 10.2988 46.1376 9.2348C45.8177 8.16749 45.7385 7.19299 45.8998 6.3113C46.0601 5.42635 46.4173 4.67746 46.9713 4.06464C47.5242 3.44856 48.2319 3.01132 49.0942 2.75291C49.6246 2.59397 50.1421 2.52222 50.6467 2.53767C51.1537 2.54888 51.6349 2.64583 52.0903 2.8285C52.5448 3.00791 52.9553 3.27142 53.3219 3.61903C53.6875 3.96338 53.9931 4.39133 54.2386 4.90288Z" fill="white"/>
    <path d="M65.4113 10.3657L63.8423 10.5479L62.7941 1.52351L60.8303 1.7516C60.3174 1.81117 59.9097 1.93718 59.6071 2.12963C59.3042 2.3187 59.0952 2.56526 58.98 2.86932C58.8649 3.17338 58.83 3.52111 58.8755 3.91252C58.9206 4.30056 59.0334 4.6243 59.214 4.88375C59.3946 5.14319 59.6519 5.32704 59.986 5.43529C60.32 5.54355 60.7418 5.56808 61.2513 5.5089L63.9085 5.20027L64.0649 6.5466L61.2609 6.87228C60.4612 6.96516 59.7793 6.90928 59.2152 6.70464C58.6545 6.4996 58.213 6.173 57.8908 5.72481C57.5716 5.27286 57.3751 4.72971 57.3014 4.09535C57.2273 3.45762 57.2937 2.88052 57.5004 2.36406C57.7068 1.84422 58.0588 1.41519 58.5564 1.07698C59.0574 0.738365 59.7078 0.522617 60.5075 0.429734L64.2073 0L65.4113 10.3657ZM59.751 6.28333L61.482 6.08227L59.5097 11.0512L57.7332 11.2575L59.751 6.28333Z" fill="white"/>
    <path d="M82.636 4.45474L81.0624 4.22894C81.0501 3.88401 80.9799 3.57194 80.8518 3.29275C80.7237 3.01356 80.5531 2.76773 80.34 2.55526C80.1268 2.34279 79.8788 2.16994 79.5959 2.03669C79.3164 1.90393 79.0119 1.81391 78.6823 1.76662C78.0872 1.68123 77.5327 1.75439 77.0191 1.9861C76.5087 2.2183 76.0759 2.60403 75.7206 3.1433C75.3686 3.68305 75.1327 4.36988 75.0131 5.20378C74.8925 6.0444 74.9252 6.77319 75.1112 7.39014C75.3006 8.00757 75.6094 8.498 76.0377 8.86145C76.466 9.2249 76.9743 9.44884 77.5628 9.53327C77.8889 9.58007 78.2046 9.58075 78.5096 9.5353C78.8186 9.48697 79.1049 9.39251 79.3688 9.25191C79.6326 9.11132 79.865 8.92675 80.0659 8.6982C80.2707 8.46677 80.4287 8.19088 80.5399 7.87053L82.1128 8.10137C81.9559 8.59704 81.7257 9.04103 81.4224 9.43333C81.1228 9.82275 80.7626 10.1451 80.3416 10.4004C79.9244 10.6529 79.4634 10.8286 78.9584 10.9278C78.4535 11.0269 77.9169 11.0357 77.3486 10.9542C76.4542 10.8258 75.6877 10.4996 75.0491 9.97561C74.4109 9.44822 73.947 8.7588 73.6574 7.90735C73.3711 7.05639 73.3069 6.08114 73.4647 4.9816C73.6229 3.8787 73.9605 2.9611 74.4774 2.22881C74.9947 1.49316 75.6335 0.963676 76.3937 0.640356C77.1544 0.313674 77.9802 0.214261 78.8713 0.342117C79.4194 0.420761 79.9191 0.573116 80.3706 0.799182C80.8259 1.02237 81.2218 1.31253 81.5583 1.66968C81.8953 2.02346 82.1571 2.43508 82.3437 2.90455C82.5308 3.37065 82.6282 3.88738 82.636 4.45474Z" fill="white"/>
    <path d="M88.626 13.2343L92.8341 3.68499L94.2749 4.3199L92.4462 8.46975L97.2069 10.5676L99.0356 6.4178L100.481 7.05477L96.2729 16.6041L94.8275 15.9671L96.6623 11.8033L91.9017 9.70537L90.0668 13.8692L88.626 13.2343Z" fill="white"/>
    <path d="M99.4524 18.2978L98.0727 17.3546L107.062 10.8591L108.564 11.8857L105.775 22.6198L104.395 21.6766L106.779 12.9616L106.712 12.9156L99.4524 18.2978ZM101.99 15.0823L106.466 18.142L105.718 19.2356L101.242 16.176L101.99 15.0823Z" fill="white"/>
    <path d="M115.308 16.7697L116.634 18.1451L113.101 26.1674L113.186 26.2554L121.331 23.016L122.657 24.3915L115.146 31.6351L114.106 30.5568L119.542 25.315L119.474 25.2453L111.913 28.2611L111.05 27.3661L114.342 19.9161L114.275 19.8464L108.836 25.0917L107.796 24.0133L115.308 16.7697Z" fill="white"/>
    <path d="M125.536 27.9661L126.368 29.2847L119.887 33.3748L119.939 33.4567L129.253 33.8565L130.031 35.0889L121.206 40.6584L120.366 39.3269L126.838 35.2422L126.786 35.1604L117.486 34.7637L116.711 33.5357L125.536 27.9661Z" fill="white"/>
    <path d="M133.214 58.9889L124.86 54.1461L129.732 45.7425L138.106 50.6641L133.214 58.9889Z" fill="white"/>
    </g>
    </svg>
    